<?xml version="1.0" standalone="no"?>
<!DOCTYPE svg PUBLIC "-//W3C//DTD SVG 1.1//EN" "http://www.w3.org/Graphics/SVG/1.1/DTD/svg11.dtd" >
<svg xmlns="http://www.w3.org/2000/svg">
<metadata>Generated by IcoMoon</metadata>
<defs>
<font id="poke-icons" horiz-adv-x="1024">
<font-face units-per-em="1024" ascent="960" descent="-64" />
<missing-glyph horiz-adv-x="1024" />
<glyph unicode="&#x20;" horiz-adv-x="512" d="" />
<glyph unicode="&#xe900;" glyph-name="pokeball" d="M513.619 912.523c-255.73 0-462.904-207.174-462.904-462.904s207.174-462.904 462.904-462.904c255.73 0 462.904 207.174 462.904 462.904s-207.174 462.904-462.904 462.904zM102.508 449.619c0 227.675 183.435 411.111 411.111 412.19 0 0 0 0 1.079 0 227.675 0 412.19-184.514 412.19-411.111 0-23.739-2.158-46.398-5.395-69.058-84.164-114.377-233.071-168.329-413.269-151.064-2.158 58.268-43.161 107.903-100.35 120.851-5.395 1.079-10.79 2.158-17.264 2.158-46.398 3.237-87.401-24.818-102.508-65.821-87.401 38.845-155.38 91.718-184.514 148.906-1.079 3.237-1.079 8.632-1.079 12.948 0 0 0 0 0 0zM468.299 217.627v0c-2.158-35.608-32.371-62.584-67.979-60.426-3.237 0-7.553 1.079-10.79 1.079-44.24 9.711-73.374 49.635-70.137 94.955 2.158 34.529 30.213 60.426 63.663 60.426 1.079 0 2.158 0 4.316 0 3.237 0 7.553-1.079 10.79-1.079 43.161-10.79 73.374-50.714 70.137-94.955zM513.619 37.429c-195.305 0-358.238 135.958-401.399 318.314 41.003-42.082 98.192-79.848 166.171-108.982 0-60.426 41.003-112.219 100.35-126.247 5.395-1.079 10.79-2.158 17.264-2.158 2.158 0 4.316 0 6.474 0 45.319 0 85.243 30.213 98.192 72.295 23.739-2.158 46.398-3.237 69.058-3.237 130.563 0 243.861 38.845 324.788 111.14-58.268-153.222-207.174-260.046-380.898-261.125z" />
<glyph unicode="&#xe901;" glyph-name="water" d="M522.394 944.077c-1.382 11.008-19.456 11.008-20.787 0-45.21-363.878-276.378-438.886-276.378-691.814 0-156.314 131.277-282.982 286.771-282.982 155.443 0 286.72 126.72 286.72 282.982 0 252.928-231.117 327.936-276.326 691.814zM478.72 541.798c-3.021-11.213-6.298-22.733-9.677-34.714-20.531-72.909-43.827-155.597-43.827-251.187 0-51.814-30.618-70.195-59.187-70.195-32.717 0-59.187 26.778-59.187 59.699 0 112.998 54.374 186.829 102.4 251.904 15.104 20.378 29.286 39.68 40.806 58.88 5.274 8.806 19.456 8.397 25.907-0.307 3.021-4.096 4.045-9.318 2.765-14.080z" />
<glyph unicode="&#xe902;" glyph-name="dragon" horiz-adv-x="1059" d="M529.477 960c-0.046 0-0.1 0-0.154 0-292.379 0-529.4-237.020-529.4-529.4 0-165.639 76.070-313.51 195.181-410.584 1.347 59.272 15.622 88.053 37.536 110.738-0.552-5.618-18.816 36.883-28.094 82.644-0.841 4.625-1.304 7.017-1.767 9.409-22.454 2.469-47.531-24.306-65.895-93.596 5.401 84.26 27.855 119.599 59.954 145.911-0.219 3.975-0.344 8.626-0.344 13.307 0 34.598 6.816 67.604 19.177 97.748-34.806 12.711-72.615-9.434-104.019-57.583 20.293 64.738 61.729 88.272 135.031 111.189 21.836 30.864 46.914 53.395 82.716 79.553-21.605 29.938-83.951 26.312-164.198-13.040 76.466 78.858 160.649 75.463 239.198 55.479-13.048-1.297 55.233 31.212 129.362 48.508-98.652 41.152-243.251 115.998-266.94 238.992 53.55-103.395 167.13-157.639 253.627-188.349 81.945-29.090 129.862-32.485 152.315-8.102 41.050 44.522-54.013 99.769-164.044 115.124 41.204 2.855 114.275-2.161 168.442-34.799 56.173-33.796 76.235-61.034 131.791-120.062 20.833-22.145 55.787-38.58 37.963-69.445-10.648-18.364 90.432-51.389 111.42-61.729 30.17-14.892 58.719-38.117 68.905-70.216 7.716-24.46 0.772-55.17-12.269-84.028v0c0 42.284-14.738 56.867-23.766 56.636 7.729 25.521-3.889-6.504-10.857-40.229-15.84 31.047-26.257 65.615-67.847 74.797 6.281-8.329 10.060-18.853 10.060-30.26 0-10.27-3.063-19.824-8.326-27.8-20.485 42.088-41.164 60.76-77.043 66.779 8.488-30.401 5.864-46.296 5.633-66.59-33.796 57.716-69.445 95.293-91.821 92.979 9.085-14.641 14.469-32.403 14.469-51.423 0-6.372-0.604-12.603-1.759-18.639-13.636 46.373-53.914 70.988-96.816 83.102 37.191-57.33 70.756-89.738 110.417-131.173s89.661-58.102 123.457-57.639 65.509 4.244 96.837-35.185c-22.134 14.489-49.245 23.109-78.371 23.109-4.545 0-9.042-0.21-13.48-0.621 20.245-6.979 58.131-8.368 72.174-56.208-28.549 32.33-38.58 35.88-78.627 42.207-50.232 7.716-103.010 38.58-145.988 80.17-36.729 35.34-78.241 78.164-117.053 115.741 3.472-30.324 16.667-59.337 34.877-90.741 10.185-17.593 51.080-38.58 74.614-42.824-14.12-1.157-34.799-10.34-51.852 0-0.283-4.606 8.16-20.096 20.204-31.933 9.811-10.043 41.293-13.669 62.666-12.512 6.585 1.557-17.604-10.172-43.869-16.619q42.249-24.894 72.959-6.684c-4.080-10.886-15.468-21.223-29.547-24.93 15.889-3.928 30.010-4.546 45.982-8.404-25.926-3.549-55.787-13.349-84.877 3.627-104.167 60.88-117.13 96.682-140.124 171.374-7.716 24.306-18.056 31.945-37.269 48.688-45.293-16.667-82.716-63.040-95.216-113.195-9.799-39.352 13.194-95.293 43.827-121.991 57.099-49.769 250.695-101.852 290.201-227.007 157.175 93.757 260.813 262.901 260.813 456.252 0 292.422-237.055 529.477-529.477 529.477-0.248 0-0.495 0-0.743-0.001zM255.402 92.096c-27.624-6.559-44.213-36.188-51.929-78.781-22.853 9.381 50.027-43.483 133.131-75.924 3.465 11.268-2.951 31.933-13.552 49.826-20.736 32.579-49.517 76.715-67.65 104.879zM961.731 444.103c10.725-8.488 16.667-4.398 23.534-9.105-2.916 15.281-16.172 26.675-32.090 26.675-3.333 0-6.548-0.499-9.577-1.428 5.478-2.177 7.947-8.041 18.133-16.143zM785.959 547.113c-14.198 27.546-17.438 33.951-37.886 44.213-9.877 4.174-21.362 6.599-33.413 6.599-7.954 0-15.662-1.057-22.989-3.037 20.137-6.263 30.708-22.544 45.446-33.886 15.895-12.423 27.624 2.546 48.843-13.889z" />
<glyph unicode="&#xe903;" glyph-name="electric" d="M348.314 0.102c-9.933 6.502 161.434 366.592 155.546 382.413-5.939 15.821-187.648 73.523-196.506 101.325-8.909 27.802 358.758 445.798 368.435 437.709 9.626-8.090-160.205-370.586-155.597-382.413 4.659-11.776 190.874-71.885 196.506-101.325 5.683-29.44-358.502-444.211-368.384-437.709z" />
<glyph unicode="&#xe904;" glyph-name="grass" d="M974.080 789.146c-223.027-130.867-207.053-399.667-363.315-520.96-117.606-91.29-283.546-45.056-379.494-5.786 0 0-65.024-82.074-111.667-191.488-15.616-36.71-84.173 3.738-72.141 34.816 152.474 393.472 671.232 589.773 671.232 589.773s-366.029 15.514-610.662-304.128c-6.554 73.011-17.408 270.541 172.032 391.68 256.819 164.403 746.086 36.608 694.016 6.093z" />
<glyph unicode="&#xe905;" glyph-name="psychic" d="M270.029 618.752c10.24 0 20.173-1.485 29.491-4.403 35.328 39.578 74.496 75.622 116.89 107.52-1.792 7.475-2.765 15.309-2.765 23.296 0 11.11 1.843 21.811 5.222 31.795-47.565 33.997-99.174 62.618-154.163 84.685-51.456-31.795-96.358-73.267-132.198-121.907 26.573-47.104 58.163-90.982 94.106-130.918 13.107 6.349 27.802 9.933 43.418 9.933zM169.779 518.554c0 14.080 2.97 27.494 8.141 39.578-32.154 35.43-61.286 73.523-86.784 114.125-32-63.59-50.176-135.424-50.176-211.507 0-88.013 24.269-170.394 66.304-240.896 15.053 84.685 43.571 164.813 82.944 238.182-12.8 16.794-20.429 37.837-20.429 60.518zM513.843 845.363c26.47 0 50.432-10.291 68.403-27.085 52.275 22.477 107.315 39.782 164.608 50.79-69.171 39.885-149.35 62.771-234.854 62.771-58.317 0-114.125-10.701-165.683-30.106 40.909-20.224 79.923-43.776 116.582-70.4 14.95 8.909 32.307 14.029 50.944 14.029zM663.654 373.35c6.246 13.005 15.104 24.525 26.061 33.587-29.594 90.982-76.442 174.285-136.806 245.914-11.981-5.12-25.19-7.885-39.117-7.885-21.76 0-41.779 7.014-58.214 18.688-36.352-27.597-69.99-58.522-100.557-92.314 9.626-15.309 15.206-33.382 15.206-52.787 0-10.394-1.587-20.48-4.608-30.003 87.91-58.675 189.133-99.021 298.035-115.2zM793.651 238.029c1.331-18.995 2.099-38.093 2.099-57.395 0-33.997-2.15-67.482-6.246-100.403 79.872 58.317 140.698 141.21 171.366 237.517-36.352-8.806-73.626-15.104-111.667-18.688-8.858-27.494-29.286-49.613-55.552-61.030zM640.205 305.971c-116.326 19.302-224.102 63.693-317.952 127.181-15.258-9.318-33.126-14.797-52.275-14.797-7.117 0-13.926 0.717-20.582 2.099-44.902-85.094-73.626-180.070-81.869-280.781 44.851-48.128 99.533-86.886 161.024-112.896 76.39 117.402 183.091 214.477 311.654 279.194zM828.211 809.933c-75.52-7.322-147.61-26.317-214.682-54.682 0.307-3.379 0.512-6.707 0.512-10.086 0-15.821-3.789-30.72-10.291-43.981 67.123-78.797 119.142-170.496 152.013-270.899 40.806-0.819 75.622-25.702 90.624-61.184 45.363 4.608 89.498 13.312 131.994 25.805 3.072 21.504 4.71 43.52 4.71 65.894-0.051 138.445-59.75 262.963-154.88 349.133zM690.637 252.467c-120.013-56.218-220.365-142.797-293.018-248.627 36.608-9.165 74.906-14.080 114.381-14.080 71.014 0 138.342 15.821 198.758 43.981 9.728 47.514 14.848 96.614 14.848 146.893 0 18.176-0.819 36.198-2.202 54.016-12.083 3.891-23.194 9.882-32.768 17.818z" />
<glyph unicode="&#xe906;" glyph-name="fighting" d="M956.928 340.787l-88.422 78.746c-25.6 22.784-25.6 60.109 0 82.893l88.422 78.797c25.6 22.784 18.79 43.981-15.155 47.309l-117.248 11.11c-33.894 3.174-52.224 32.41-40.499 64.819l62.208 173.21c11.674 32.512-2.611 44.288-31.693 26.317l-138.291-85.504c-29.082-18.125-66.714-8.192-83.507 21.811l-50.074 89.395c-16.845 30.106-44.646 30.208-61.798 0.41l-46.541-80.896c-17.254-29.952-56.73-42.65-87.706-28.467l-81.92 37.581c-31.13 14.336-54.938-2.15-53.094-36.659l4.403-82.688c1.894-34.509-23.603-69.99-56.525-78.899l-79.104-21.197c-32.87-8.909-38.912-34.816-13.312-57.6l88.422-78.797c25.6-22.784 25.6-60.109 0-82.893l-88.422-78.797c-25.6-22.784-18.842-44.902 15.002-48.998l107.264-13.005c33.843-4.096 52.685-34.304 41.882-67.123l-54.989-166.81c-10.803-32.819 4.608-45.517 34.202-28.416l126.106 73.011c29.594 17.101 69.427 7.68 88.525-20.89l52.326-78.797c19.046-28.621 47.667-27.085 63.488 3.482l46.029 88.73c15.872 30.618 53.862 43.11 84.378 27.802l88.781-44.39c30.618-15.206 54.118 0.512 52.275 34.918l-4.454 82.79c-1.792 34.509 23.603 69.888 56.627 78.797l79.002 21.299c32.973 8.909 39.014 34.816 13.414 57.6zM563.2 256h-102.4v102.4h102.4v-102.4zM563.2 409.6h-102.4v256h102.4v-256z" />
<glyph unicode="&#xe907;" glyph-name="fairy" horiz-adv-x="1623" d="M571.676 762.866c-74.26 66.228-160.216 129.92-265.194 165.852-28.313 12.367-92.867 27.114-160.299 31.198-11.19 0.085-151.96 1.917-146.042-9.075 4.65-8.173 20.855-16.064 33.96-36.919 10.568-31.987 48.051-75.81 88.351-120.62 45.655-51.151 60.874-165.148 66.792-223.203s18.178-146.829 144.293-150.775c71.442-2.255 147.111-4.509 211.366-5.355 31.041 11.343-7.12 0.076-41.762-17.196-81.112-39.309-172.704-89.755-172.704-89.755s-49.882-20.009-10.568-53.405c34.805-29.45-7.891-31.987 37.2-74.542 31.987-29.028 0-38.328 38.751-74.542s-20.291-38.751 30.578-72.287c11.45-5.321 20.501-17.284 22.244-31.507l10.87-59.098c29.309 7.891 56.364-9.441 79.333 1.127s32.973 3.664 49.46-4.65c3.967-1.581 8.564-2.498 13.376-2.498 18.213 0 33.358 13.139 36.473 30.455 1.622 19.784 16.269 47.479 37.999 67.648 22.82 16.716 53.8 65.076 66.41 120.426 9.621 43.95 32.308 125.396 49.64 181.338l2.114 139.925c-22.828 39.032-119.915 195.866-222.639 287.458zM1050.914 762.866c74.26 66.228 160.216 129.92 265.194 165.852 28.313 12.367 92.867 27.114 160.299 31.198 11.19 0.085 151.96 1.917 146.042-9.075-4.65-8.173-20.855-16.064-33.96-36.919-10.568-31.987-48.051-75.81-88.351-120.62-45.655-51.151-60.874-165.148-66.792-223.203s-18.178-146.829-144.293-150.775c-71.442-2.255-147.111-4.509-211.366-5.355-29.756 10.612 8.001-0.209 42.372-16.91 81.066-39.313 172.658-89.759 172.658-89.759s49.882-20.009 10.568-53.405c-34.805-29.45 7.891-31.987-37.2-74.542-31.987-29.028 0-38.328-38.751-74.542s20.291-38.751-30.578-72.287c-11.45-5.321-20.501-17.284-22.244-31.507l-10.87-59.098c-29.309 7.891-56.364-9.441-79.333 1.127s-32.973 3.664-49.46-4.65c-3.967-1.581-8.564-2.498-13.376-2.498-18.213 0-33.358 13.139-36.473 30.455-1.622 19.784-16.269 47.479-37.999 67.648-22.82 16.716-53.8 65.076-66.41 120.426-9.621 43.95-32.308 125.396-49.64 181.338l-2.114 139.925c22.405 38.751 119.352 195.584 222.076 287.177z" />
<glyph unicode="&#xe908;" glyph-name="flying" horiz-adv-x="1073" d="M344.244-63.861c-134.917 41.119-266.682 172.586-319.503 339.187 101.649-160.275 208.775-276.547 319.503-339.187v0zM1049.222 279.135c-32.071-138.677-155.391-278.15-316.897-341.731 107.219 61.374 214.206 177.647 316.897 341.731v0zM324.565 930.066c-28.597-9.356 27.93 15.132 88.446 29.233-8.090-106.226-14.744-230.238-14.744-355.805 0-4.557 0.009-9.111 0.026-13.664-0.002-192.206 13.856-379.017 39.494-512.058-52.662 173.23-97.009 477.007-113.085 852.71v0zM656.197 960c-21.205 8.35 39.623-6.783 95.419-31.264-20.168-374.373-63.822-677.734-116.484-851.38 26.054 133.318 39.497 320.13 39.497 512.762 0.016 3.927 0.025 8.574 0.025 13.224 0 125.522-6.654 249.491-19.627 371.572l1.309-15.191zM784.388 912.881c-48.963 30.17 28.137-8.21 92.674-61.305-62.186-410.713-143.258-708.808-230.982-846.7 70.955 172.26 120.014 509.852 138.584 908.143v0zM196.79 852.32c-49.387-36.6 14.549 19.728 88.83 59.151 21.345-396.743 70.403-734.473 141.497-906.733-87.724 138.584-168.796 435.986-230.050 847.443v0zM66.382 695.858c-22.588-24.118 28.321 60.459 96.873 126.95 60.836-397.19 142.74-698.056 239.749-843.57-118.905 106.987-233.238 353.667-336.067 716.62v0zM909.114 822.801c-19.951 29.61 48.754-40.443 95.612-124.357-101.432-365.677-215.764-612.496-334.67-719.345 97.009 145.514 178.358 446.38 238.781 843.563v0zM0 437.121c0.017 75.234 15.716 147.138 44.020 212.301 93.871-328.573 201.274-563.474 318.378-681.271-122.647 69.292-243.216 210.925-360.319 419.218q-2.217 24.529-2.217 49.613v0zM1030.236 646.799c26.896-61.637 42.546-133.453 42.546-208.925 0-0.265 0-0.53-0.001-0.795q0-25.043-2.217-49.572c-115.718-206.768-235.593-347.847-357.132-417.693 126.389 128.191 231.575 384.156 316.804 677.123v0z" />
<glyph unicode="&#xe909;" glyph-name="ground" d="M512 952.32c-271.104 0-491.571-220.518-491.571-491.52s220.467-491.52 491.571-491.52c271.002 0 491.52 220.518 491.52 491.52s-220.518 491.52-491.52 491.52zM931.226 460.8c0-95.898-32.563-184.32-86.835-254.976-15.36 11.981-31.693 44.39-16.333 77.978 15.514 33.792 19.558 112.026 15.974 142.49-3.379 30.413-19.2 103.68-62.157 104.397-42.906 0.614-72.346 14.797-97.843 65.69-52.89 105.882 99.277 126.208 46.387 184.781-14.797 16.486-91.29-67.686-102.502 44.493-0.717 8.038 6.912 20.070 17.203 32.563 166.093-55.808 286.106-212.838 286.106-397.414zM454.4 875.878c-10.035-19.558-36.506-27.494-52.582-42.189-35.021-31.693-50.074-27.29-68.915-57.702-18.995-30.413-80.23-74.189-80.23-96.205s30.925-47.923 46.387-42.906c15.462 5.12 56.269 4.813 80.23-3.584 24.013-8.499 200.397-16.998 144.179-166.093-17.818-47.411-95.898-39.424-116.685-117.914-3.123-11.52-13.926-60.723-14.592-76.8-1.28-24.883 17.613-118.682-6.4-118.682-24.115 0-88.986 83.917-88.986 99.123s-16.794 68.506-16.794 114.176c0 45.619-77.722 44.902-77.722 105.574 0 54.682 42.138 81.92 32.666 108.186-9.267 26.112-83.302 26.982-114.176 30.208 53.914 139.827 180.736 243.61 333.619 264.806zM380.109 62.976c25.19 13.312 27.75 30.515 50.586 31.386 26.112 1.178 47.36 10.189 76.8 16.691 26.112 5.683 72.858 32.205 113.971 35.584 34.714 2.816 103.168-1.792 121.6-35.277-66.304-44.083-145.818-69.786-231.117-69.786-46.029 0-90.368 7.629-131.84 21.402z" />
<glyph unicode="&#xe90a;" glyph-name="dark" d="M512 832c-212.064 0-384-171.936-384-384 0-212.096 171.936-384 384-384 212.096 0 384 171.904 384 384 0 212.064-171.904 384-384 384zM754.4 389.888l-75.648-84.16-16.288 118.304c-97.984 30.016-209.984 30.304-313.984 0.32l-10.112-119.776c0 0-82.112 84.512-83.584 84.512-38.432-13.664-80.096-43.744-80.096-43.744l-1.984 25.984c0 0 317.344 221.344 664.032 0l-1.984-25.984c-0.064-0.032-38.336 32.544-80.352 44.544z" />
<glyph unicode="&#xe90b;" glyph-name="ghost" horiz-adv-x="944" d="M943.759 384.138c0.22-1.701 0.345-3.668 0.345-5.664 0-9.868-3.064-19.021-8.291-26.559-6.203-13.755-20.712-24.966-38.037-27.343q-32.881-4.434-77.887 25.020c36.505 93.422-1.897-28.551-60.156-138.379-14.272-21.586-31.775-74.424-36.379-130.912q3.906-80.576 103.278-143.75-346.013-6.469-562.787 156.077c0.857-15.015-86.813 64.22-145.956 162.56 0.766-1.961-1.37 3.345-4.435 7.982-8.211-10.628-28.683-23.048-51.975-27.573-2.875-0.431-5.449-0.617-8.066-0.617-14.755 0-28.127 5.923-37.867 15.521-6.304 5.111-12.856 16.165-14.953 28.727q-6.236 46.002 68.775 104.909c4.679-23.707-8.711 25.427-15.866 76.559q-27.902 209.032 86.61 354.099 106.942 136.258 273.067 145.204t275.269-82.581q122.357-102.125 143.553-309.815c2.696-21.893 4.234-47.236 4.234-72.938 0-7.699-0.138-15.365-0.412-22.997q101.055-36.332 107.937-87.532zM652.249 566.641c-36.055-27.711-131.485-65.291-234.594-78.137-4.739-1.173-28.914-3.929-53.536-4.96q-158.77 3.131-242.176 79.518c-14.182 38.643 3.931-25.832 32.246-84.456l24.046 27.751 27.527-82.581 56.017 61.798 49.686-89.738 49.961 65.376 46.383-73.497 47.897 80.654 60.009-50.649 49.273 70.882 37.024-28.215c11.858 8.455 37.884 53.777 49.865 104.524zM173.419 712.396c-6.43-8.387-10.303-19.028-10.303-30.573 0-27.897 22.615-50.512 50.512-50.512 2.323 0 4.609 0.157 6.848 0.46 12.583 0.755 25.687 8.228 34.196 19.393 6.572 8.514 10.481 19.183 10.481 30.764 0 16.308-7.75 30.807-19.768 40.013-8.451 6.579-19.066 10.495-30.595 10.495-2.799 0-5.543-0.231-8.216-0.674-12.194-0.762-24.966-8.133-33.202-19.104zM533.196 690.787c-6.511-8.192-10.446-18.686-10.446-30.099 0-2.541 0.195-5.036 0.571-7.472 0.749-12.572 8.223-25.676 19.388-34.185 8.514-6.572 19.183-10.481 30.764-10.481 16.308 0 30.807 7.75 40.013 19.768 6.579 8.451 10.495 19.066 10.495 30.595 0 2.799-0.231 5.543-0.674 8.216-3.293 24.668-24.448 43.719-50.052 43.719-16.344 0-30.876-7.763-40.108-19.803z" />
<glyph unicode="&#xe90c;" glyph-name="rock" d="M692 660l-60-132-156 252-132-300-48 84-144-384h720l-180 480zM344 396l-36-24-24 24-36-24 48 132 96-132-48 24zM476 466.556l-48 31.676-36-66.232-24 31.676 108 256.324 132-212.636-36-51.364-48 63.364-48-52.808zM572 396l120 192 84-228-96 72-108-36z" />
<glyph unicode="&#xe90d;" glyph-name="ice" horiz-adv-x="887" d="M413.596 250.645v-87.181l-54.745-32.984 86.086-194.481 86.086 194.481-54.745 32.984v87.181l124.955-73.084v144.937l75.411-43.659v-64.872l212.136-22.445-124.955 172.035-56.524-31.752-75.411 43.659 126.050 71.852-126.050 73.084 75.411 43.659 56.524-32.984 124.955 173.267-213.641-23.814v-63.641l-75.411-43.659v145.21l-124.955-73.084v87.181l54.745 31.752-86.086 195.576-85.402-195.439 54.745-31.752v-87.181l-124.955 73.084v-144.937l-76.643 43.659v63.23l-212.136 23.54 126.050-173.267 54.745 32.984 76.643-43.659-124.544-72.263 126.050-71.852-76.643-43.659-54.745 31.752-126.050-172.035 212.136 22.445v64.872l76.643 43.659v-144.937zM319.299 664.242l94.298-54.745v-109.489l-94.298 54.745v108.395zM319.299 340.153l94.298 54.745v-108.395l-94.298-54.745v109.489zM474.91 285.408v108.395l94.298-54.745v-109.489l-94.298 54.745zM474.91 609.497l94.298 54.745v-108.395l-94.298-54.745v109.489zM505.567 447.863l94.298 54.745 95.803-54.745-95.803-54.745zM288.778 502.608l94.298-54.745-94.298-54.745-95.803 54.745z" />
<glyph unicode="&#xe90e;" glyph-name="normal" d="M512 952.32c-271.462 0-491.52-220.058-491.52-491.52s220.058-491.52 491.52-491.52c271.411 0 491.52 220.058 491.52 491.571 0 271.411-220.109 491.469-491.52 491.469zM512 71.731c-214.886 0-389.12 174.182-389.12 389.12 0 214.886 174.182 389.12 389.12 389.12 214.886 0 389.12-174.182 389.12-389.12s-174.234-389.12-389.12-389.12zM640 652.749c-42.394 0-76.8-40.090-76.8-89.549s34.406-89.6 76.8-89.6c42.445 0 76.8 40.090 76.8 89.6s-34.355 89.549-76.8 89.549zM384.051 473.6c42.394 0 76.749 40.090 76.749 89.6s-34.406 89.6-76.8 89.6c-42.394 0-76.8-40.090-76.8-89.6s34.406-89.6 76.851-89.6zM665.6 345.6h-307.2c-21.197 0-38.4-17.203-38.4-38.4s17.203-38.4 38.4-38.4h307.2c21.197 0 38.4 17.203 38.4 38.4 0 21.248-17.152 38.4-38.4 38.4z" />
<glyph unicode="&#xe90f;" glyph-name="poison" d="M899.378 293.724c-0.051 0-0.111 0-0.172 0-19.123 0-37.236-4.327-53.412-12.055l-71.359 73.14c8.29 25.585 13.919 59.177 14.397 94.014-0.034 32.229-5.312 64.577-15.053 94.926l72.727 70.581c15.847-7.868 34.511-12.471 54.251-12.471 68.611 0 124.231 55.62 124.231 124.231 0 64.025-48.433 116.737-110.659 123.498-8.080 62.354-60.636 110.168-124.359 110.168-68.847 0-124.658-55.811-124.658-124.658 0-19.171 4.328-37.331 12.059-53.557l-72.928-71.424c-26.657 9.648-57.423 15.226-89.492 15.226-0.738 0-1.475-0.003-2.212-0.009-30.634-0.071-64.032-5.643-95.328-15.863l-70.461 72.824c7.469 15.529 11.832 33.763 11.832 53.017 0 68.866-55.827 124.693-124.693 124.693-63.818 0-116.439-47.943-123.81-109.777-62.274-7.423-110.253-59.68-110.28-123.148 0-0.045 0-0.096 0-0.146 0-68.847 55.811-124.658 124.658-124.658 19.17 0 37.329 4.327 53.554 12.057l71.353-73.141s-12.836-36.978-12.836-92.444c0-62.044 12.836-94.080 12.836-94.080l-72.107-72.711c-15.65 7.641-34.052 12.109-53.498 12.109-68.611 0-124.231-55.62-124.231-124.231 0-63.771 48.050-116.319 109.92-123.416 8.102-62.359 60.657-110.173 124.38-110.173 68.847 0 124.658 55.811 124.658 124.658 0 19.171-4.328 37.331-12.059 53.557l32.714 31.247c6.578-5.76 33.6-24.889 92.053-8.64 0 0 44.302-17.067 78.222 0 0 0 64.924-19.947 94.364 9.316l33.031-32.782c-7.449-15.512-11.801-33.723-11.801-52.951 0-68.866 55.827-124.693 124.693-124.693 63.833 0 116.463 47.965 123.815 109.819 62.265 7.437 110.236 59.684 110.279 123.146 0 0.036 0 0.074 0 0.111 0 68.841-55.787 124.653-124.618 124.693zM708.231 750.862l22.116 21.973-13.227 28.231c-4.78 9.938-7.574 21.607-7.574 33.929 0 0.072 0 0.144 0 0.215 0 0.030 0 0.079 0 0.128 0 44.438 36.024 80.462 80.462 80.462 41.179 0 75.134-30.934 79.892-70.833l4.055-35.262 34.844-4.018c39.945-4.409 70.809-37.86 71.111-78.582-0.040-44.494-36.043-80.534-80.488-80.635-0.088 0-0.181 0-0.273 0-12.289 0-23.926 2.793-34.311 7.78l-27.719 13.056-83.342-84.231c-25.742 64.427-104.498 109.191-104.498 109.191zM208.818 645.156l-21.902 22.151-28.196-13.262c-9.91-4.78-21.55-7.574-33.842-7.574-0.090 0-0.18 0-0.27 0-44.433 0.101-80.428 36.146-80.448 80.602 0 0.099-0.001 0.214-0.001 0.328 0 40.782 31.041 74.315 70.785 78.261l35.136 4.044 4.018 34.88c4.911 40.184 38.824 71.004 79.936 71.004 44.458 0 80.498-36.040 80.498-80.498 0-12.352-2.782-24.054-7.753-34.513l-13.018-27.744 22.151-21.973 57.422-57.102s-85.333-65.778-104.569-109.191zM315.769 145.138l-22.187-21.973 13.262-28.231c4.78-9.928 7.574-21.587 7.574-33.898 0-0.083 0-0.166 0-0.249 0-0.018 0-0.054 0-0.090 0-44.438-36.024-80.462-80.462-80.462-41.179 0-75.133 30.934-79.892 70.832l-4.055 35.333-34.809 4.018c-40.071 3.972-71.112 37.504-71.112 78.287 0 0.127 0 0.254 0.001 0.382 0.040 44.424 36.027 80.448 80.452 80.549 0.088 0 0.181 0 0.273 0 12.289 0 23.926-2.793 34.311-7.78l27.719-13.020 83.911 84.729c-10.528 12.593 11.234-26.030 40.934-56.974s3.474-60.608 36.434-79.311zM669.191 267.449l-0.427-2.311c-8.96-125.44-116.231-83.556-116.231-83.556-52.267-18.204-74.987 2.276-74.987 2.276-131.804-47.751-121.564 89.956-121.564 89.956-46.85 43.313-76.086 105.089-76.086 173.694 0 130.506 105.796 236.302 236.302 236.302s236.302-105.796 236.302-236.302c0-71.98-32.184-136.444-82.946-179.786zM910.222 90.311l-34.738-3.911-3.982-34.88c-4.796-40.279-38.75-71.213-79.929-71.213-44.438 0-80.462 36.024-80.462 80.462 0 0.011 0 0.022 0 0.033 0 0.073 0 0.161 0 0.25 0 12.306 2.793 23.959 7.78 34.36l13.056 27.753-22.151 21.973-32.391 32c33.138 18.702 36.516 79.396 36.516 79.396-9.982-14.857 19.952 17.383 40.203 55.546l62.659-61.271 21.902-22.116 28.196 13.227c9.905 4.78 21.539 7.574 33.826 7.574 0.095 0 0.191 0 0.286-0.001 44.374-0.161 80.301-36.163 80.341-80.565 0-0.091 0.001-0.195 0.001-0.298 0-40.79-31.037-74.33-70.784-78.293zM699.662 446.613c0-42.71-34.591-77.333-77.262-77.333s-77.262 34.623-77.262 77.333c0 42.71 34.591 77.333 77.262 77.333s77.262-34.623 77.262-77.333zM479.289 446.613c0-42.71-34.591-77.333-77.262-77.333s-77.262 34.623-77.262 77.333c0 42.71 34.591 77.333 77.262 77.333s77.262-34.623 77.262-77.333zM474.702 320.356s0 88.889 38.649 88.889 36.338-88.889 36.338-88.889-31.822 23.893-74.987 0z" />
<glyph unicode="&#xe910;" glyph-name="pokeball-open" d="M512 960c-282.77 0-512-229.23-512-512s229.23-512 512-512c282.77 0 512 229.23 512 512s-229.23 512-512 512zM512 857.135c205.867-5.585 374.959-160.38 402.832-360.387l-193.843-2.202c-19.339 99.456-105.749 173.508-209.455 173.508s-190.115-74.052-209.236-172.163l-194.313-1.345c27.587 201.666 196.835 356.919 403.443 362.577zM640 448c0-70.692-57.308-128-128-128s-128 57.308-128 128c0 70.692 57.308 128 128 128s128-57.308 128-128zM512 38.865c-205.867 5.585-374.959 160.38-402.832 360.387l193.843 2.202c19.339-99.456 105.749-173.508 209.455-173.508s190.115 74.052 209.236 172.163l193.382 1.345c-27.486-201.319-196.267-356.453-402.467-362.575z" />
<glyph unicode="&#xe911;" glyph-name="pokeball-out" d="M512 960c-282.77 0-512-229.23-512-512s229.23-512 512-512c282.77 0 512 229.23 512 512s-229.23 512-512 512zM512 576c70.692 0 128-57.308 128-128s-57.308-128-128-128c-70.692 0-128 57.308-128 128s57.308 128 128 128zM512 38.865c-205.867 5.585-374.959 160.38-402.832 360.387l193.843 2.202c19.339-99.456 105.749-173.508 209.455-173.508s190.115 74.052 209.236 172.163l194.313 1.345c-27.587-201.666-196.835-356.919-403.443-362.577z" />
<glyph unicode="&#xe912;" glyph-name="berry" horiz-adv-x="856" d="M510.801 756.806c11.026 25.933-46.041-53.238-81.128-143.393-3.147-5.136-0.030 96.881 53.196 163.893 51.068 65.813 90.388 76.962 94.464 70.009 6.593-8.631-20.619-31.048-66.532-90.508zM398.835 854.507c45.674-81.637 6.953-190.127 6.953-190.127s-112.686 23.976-158.359 105.493-7.073 190.127-7.073 190.127 112.805-23.856 158.479-105.493zM743.845 595.57c-19.263 24.261-67.362 53.406-122.063 64.125l-8.244 1.209h-1.319c-7.839 1.903-16.839 2.994-26.094 2.994-1.827 0-3.644-0.043-5.449-0.127-70.952 2.527-126.096-46.264-152.229-62.087-26.133 15.824-81.158 64.614-152.365 62.097-1.584 0.078-3.439 0.122-5.305 0.122-9.258 0-18.261-1.093-26.887-3.158l-0.535 0.158-6.713-0.959c-34.572-2.239-85.363-27.006-123.766-64.425-81.945-70.318-112.514-155.791-112.514-266.798 0-216.98 191.805-392.841 427.965-392.841s427.965 175.861 427.965 392.841c-0.24 110.408-30.809 196.6-112.446 266.849zM206.55 578.068c-83.915-55.863-127.431-153.804-128.27-255.101-2.056-8.896-9.659-16.337-19.258-18.313-0.454-0.044-0.794-0.053-1.137-0.053-10.328 0-18.701 8.373-18.701 18.701 0 0.262 0.005 0.523 0.016 0.782 1.078 113.607 51.307 223.776 145.531 286.472 2.818 1.258 6.106 1.991 9.566 1.991 6.973 0 13.25-2.977 17.631-7.729 1.049-2.664 1.648-5.73 1.648-8.935 0-6.958-2.823-13.257-7.387-17.814z" />
<glyph unicode="&#xe913;" glyph-name="strain" horiz-adv-x="397" d="M397.253 930.933s0 0 0 0.83v0s0 0 0 0.83v0c0 14.83-12.022 26.853-26.853 26.853s-26.853-12.022-26.853-26.853v0s0-0.83 0-1.246 0 0 0 0c-0.009-18.231-2.688-36.309-7.676-53.404l-274.692 1.36c-4.657 15.826-7.337 34.009-7.337 52.817 0 0.167 0 0.333 0.001 0.499s0-0.026 0-0.026c0 0 0 0 0 0 0 14.907-12.084 26.991-26.991 26.991s-26.991-12.084-26.991-26.991c0 0 0 0 0 0 0-119.176 75.575-186.584 152.257-242.504-76.682-55.366-152.257-123.328-152.257-242.504s75.575-186.723 152.257-242.504c-76.682-55.366-152.257-123.328-152.257-242.504 0 0 0 0 0 0 0-14.907 12.084-26.991 26.991-26.991s26.991 12.084 26.991 26.991c0 0 0 0 0 0s0 0 0 0c-0.002 0.289-0.002 0.63-0.002 0.972 0 20.514 3.241 40.272 9.239 58.788l271.471-1.349c5.706-17.285 8.997-37.182 8.997-57.847 0-0.053 0-0.105 0-0.158s0 0.008 0-0.822c-0.44-1.848-0.692-3.97-0.692-6.151 0-15.289 12.394-27.683 27.683-27.683s27.683 12.394 27.683 27.683c0 2.181-0.252 4.303-0.729 6.339 0.037 118.989-75.538 186.536-152.22 242.317 76.682 55.366 152.257 123.328 152.257 242.504s-75.575 186.584-152.257 242.504c75.99 56.197 151.15 123.328 151.981 241.259zM284.998 101.684c-16.669 19.835 11.791-8.154 32.213-41.589l-237.345-1.043c-14.814-20.356 5.596 14.511 32.868 42.698l172.818-0.066zM198.627 172.553c15.641-11.212 31.005-22.285 45.4-33.912h-90.801c14.534 11.627 29.759 22.7 45.4 33.912zM160.562 266.537h76.129c-12.319-9.551-25.053-18.825-38.064-27.683-13.011 8.859-25.745 18.271-38.064 27.683zM279.461 303.494h-161.531c23.209-24.325-7.82 3.319-31.006 36.806l224.096 0.843c19.806 26.483-2.45-9.021-31.524-37.615zM330.675 378.238h-264.651c-2.322 2.674-8.571 22.83-11.127 44.122l286.436 0.863c0.39-7.104-3.811-27.421-11.076-46.214zM343.133 460.181h-288.874c-0.048 11.428 3.066 30.054 8.674 47.564l271.757-1.333c3.348-8.443 7.152-26.732 8.147-45.765zM284.583 587.246c-15.395 18.688 12.891-9.342 33.045-42.822l-238.454-1.056c-13.717-18.469 6.551 16.090 33.683 43.928l171.726-0.050zM198.627 657.562c15.364-10.935 30.451-21.87 44.708-33.22h-89.417c14.257 11.212 29.344 22.147 44.708 33.081zM156.133 754.453h85.126c-13.842-10.796-27.683-21.178-42.494-31.559-14.81 10.935-29.067 21.316-42.632 32.112zM114.608 791.548c11.466-15.329-17.259 13.914-37.188 48.827l243.289 1.141c11.237 13.788-9.658-21.702-37.797-49.977l-168.581 0.009z" />
<glyph unicode="&#xe919;" glyph-name="steel" horiz-adv-x="558" d="M557.768 541.708l-82.844 169.49s-22.408 6.383-84.881-17.927c-19.96-8.99-48.981-15.858-79.491-16.831l-0.365 40.733c9.474 0.002 20.329 0.894 30.91 2.6-15.571-2.962 12.011 0.827 38.47 7.45-2.563 4.346-2.563 9.371-3.377 14.532 13.632 2.908-9.884-3.57-34.346-7.137-7.076-1.012-18.077-1.555-18.077-1.962v7.605c-13.581-2.852-23.495-5.432-35.446-7.062-0.853 0.060-1.849 0.094-2.852 0.094s-1.999-0.034-2.985-0.102c-4.484 0.007-10.867 0.822-15.485 1.365-11.951 1.63-24.581 4.21-38.162 7.062v-9.099c2.447-0.217-5.235 1.102-13.111 1.735 7.754-2.077-15.271 1.555-37.175 7.84 1.938-5.365 1.938-10.39 1.123-15.551-17.25 3.711 8.029-3.037 34.262-6.84 9.4-1.663 19.082-2.605 28.973-2.666l0.053-40.743c-14.996-0.355-48.088 6.138-78.811 17.514-60.393 23.636-80.765 17.253-80.765 17.253l-82.844-169.49s76.46 30.557 70.077-15.346c-1.816-48.358-26.909-110.38-66.874-159.897 30.885-68.398 116.852-203.12 239.080-266.543v-26.075l40.743-137.439v0.679l-4.21-0.951 30.829 137.71v27.162c135.809 64.238 211.319 197.874 241.74 266.593-29.78 32.076-57.815 91.668-65.065 157.517-6.642 47.283 70.905 16.726 70.905 16.726zM291.582 756.286h-22.952c-5.976 0-11.001-1.766-11.001-6.926s4.889-6.655 11.001-6.655h22.952c5.976 0 11.001 1.494 11.001 6.655s-4.889 6.926-11.001 6.926zM239.703 935.69c0.243-9.186 7.748-16.54 16.971-16.54 0.672 0 1.335 0.039 1.986 0.115l39.849-0.008c0.534-0.059 1.153-0.092 1.781-0.092 9.271 0 16.834 7.315 17.231 16.489-0.36 9.726-8.304 17.445-18.050 17.445-0.339 0-0.675-0.009-1.009-0.028 1.226-0.152 2.589-0.239 3.973-0.239 5.523 0 10.719 1.397 15.255 3.856-4.389 2.337-9.447 3.765-14.838 3.765-1.533 0-3.039-0.115-4.51-0.338l-39.763 0.021c-1.245 0.202-2.681 0.318-4.144 0.318-5.419 0-10.467-1.587-14.705-4.321 4.164-1.706 8.892-2.735 13.86-2.735 1.76 0 3.49 0.129 5.18 0.379-0.435-0.012-0.72-0.005-1.006-0.005-9.976 0-18.063-8.087-18.063-18.063 0-0.006 0-0.013 0-0.019zM291.582 824.191h-22.952c-5.976 0-11.001-1.63-11.001-6.79s4.889-6.79 11.001-6.79h22.952c5.976 0 11.001 1.63 11.001 6.79s-4.889 6.79-11.001 6.79zM291.582 783.448h-22.952c-6.311-1.253-11.003-6.745-11.003-13.334 0-0.087 0.001-0.173 0.002-0.26 0.163-6.529 4.75-12.016 10.901-13.547l23.051-0.021c6.2 1.511 10.807 6.982 11 13.56 0.002 0.094 0.003 0.181 0.003 0.268 0 6.589-4.692 12.081-10.916 13.32zM291.582 797.029h-22.952c-5.976 0-11.001-1.494-11.001-6.655s4.889-6.926 11.001-6.926h22.952c5.976 0 11.001 1.63 11.001 6.926s-4.889 6.655-11.001 6.655zM291.582 892.095h-22.952c-7.501 0-13.581-6.080-13.581-13.581s6.080-13.581 13.581-13.581h22.952c7.501 0 13.581 6.080 13.581 13.581s-6.080 13.581-13.581 13.581zM291.582 851.353h-22.952c-7.501 0-13.581-6.080-13.581-13.581s6.080-13.581 13.581-13.581h22.952c7.501 0 13.581 6.080 13.581 13.581s-6.080 13.581-13.581 13.581zM291.582 919.257h-22.952c-6.311-1.253-11.003-6.745-11.003-13.334 0-0.087 0.001-0.173 0.002-0.26 0.163-6.529 4.75-12.016 10.901-13.547l23.051-0.021c6.2 1.511 10.807 6.982 11 13.56 0.002 0.094 0.003 0.181 0.003 0.268 0 6.589-4.692 12.081-10.916 13.32zM291.582 864.934h-22.952c-5.976 0-11.001-1.766-11.001-6.926s4.889-6.655 11.001-6.655h22.952c5.976 0 11.001 1.494 11.001 6.655s-4.889 6.926-11.001 6.926z" />
<glyph unicode="&#xf091;" glyph-name="bug" horiz-adv-x="733" d="M243.621 803.469c-52.874-56.781-38.281-147.469-38.281-147.469s53.968-64 160-64c106.031 0 160.031 64 160.031 64s14.375 89.469-37.375 146.312c32.375 18.031 51.438 44.094 43.562 61.812-8.938 19.969-48.375 21.75-88.25 3.969-14.812-6.594-27.438-14.969-37.25-23.875-12.438 2.25-25.625 3.781-40.72 3.781-14.061 0-26.561-1.344-38.344-3.25-9.656 8.75-22.062 16.875-36.531 23.344-39.875 17.719-79.375 15.938-88.25-3.969-7.748-17.343 10.284-42.686 41.408-60.655zM644.746 390.25c-8.25 1.75-16.125 2.75-23.75 3.5 0 2.125 0.375 4.125 0.375 6.312 0 33.594-4.75 65.654-12.438 96.125 16.438-1.406 37.375 2.375 58.562 11.779 39.875 17.781 65 48.375 56.125 68.219-8.875 19.969-48.375 21.75-88.25 3.969-18.625-8.312-33.812-19.469-44-30.906-7.75 18.25-16.5 35.781-26.812 51.719-30.188-25.156-87.312-62.719-167.062-71.062v-321.781c0 0-0.25-32-32.031-32-31.75 0-32 32-32 32v321.657c-79.811 8.344-136.968 45.969-167.093 71.062-9.875-15.312-18.375-32-25.938-49.344-10.281 10.625-24.625 20.844-41.969 28.594-39.875 17.719-79.375 15.938-88.25-3.969-8.906-19.906 16.25-50.438 56.125-68.219 19.844-8.846 39.531-12.812 55.469-12.096-7.656-30.404-12.469-62.344-12.469-95.812 0-2.188 0.375-4.25 0.438-6.5-6.719-0.75-13.688-1.75-20.781-3.25-51.969-10.75-91.781-37.625-88.844-59.812 2.938-22.312 47.5-31.5 99.594-20.688 6.781 1.375 13.438 3.125 19.781 5.062 9.156-40.809 23.812-78.684 44.094-111.309-12.031-6.062-24.531-15-36.031-26.625-31.876-31.875-44.812-70.625-28.876-86.563 15.938-15.937 54.656-3 86.531 28.812 9.344 9.375 16.844 19.25 22.656 29 43.532-42.624 98.063-68.124 157.563-68.124 60.343 0 115.781 26.25 159.531 69.938 5.875-10.312 13.75-20.812 23.625-30.688 31.812-31.875 70.625-44.812 86.562-28.875s3 54.625-28.875 86.5c-12.312 12.375-25.688 21.75-38.438 27.938 20.125 32.5 34.625 70.375 43.688 111.062 7.188-2.25 14.688-4.375 22.562-6.062 52.061-10.812 96.625-1.562 99.625 20.688 2.813 22.124-36.999 48.999-88.999 59.749z" />
<glyph unicode="&#xf0d2;" glyph-name="fire" d="M433 915c50-134 24-207-32-265-61-64-156-112-223-206-89-125-104-400 217-472-135 71-164 277-18 406-38-125 32-205 119-176 85 29 141-32 139-102-1-48-20-89-69-112 209 37 293 210 293 342 0 174-155 198-77 344-93-8-125-69-116-169 6-66-63-111-114-81-41 25-40 73-4 109 77 76 107 251-115 382z" />
</font>
</defs>
</svg>
